<?xml version="1.0" encoding="utf-8"?>
<!-- Generator: Adobe Illustrator 24.1.0, SVG Export Plug-In . SVG Version: 6.00 Build 0)  -->
<svg version="1.2" baseProfile="tiny" id="Layer_1" xmlns="http://www.w3.org/2000/svg" xmlns:xlink="http://www.w3.org/1999/xlink"
	 x="0px" y="0px" viewBox="0 0 2873.3 544.8" xml:space="preserve">
<g id="Ebene_2">
	<g id="BASFw_wh100db_4c">
		<path d="M0,15.4v514.7h514.7V15.4H0z M356.3,371.7h-198v-198h198V371.7z"/>
		<path d="M673.1,173.8h198v198h-198V173.8z"/>
		<path d="M1029.4,15.4h286.8c105.3,0,153.3,70.2,153.3,134.3c0,46.2-17.8,76-65.4,103.8c60.1,22.2,92.8,62.3,92.8,124.1
			c0,73.9-53.7,152.4-180.3,152.4h-287.3L1029.4,15.4z M1186,413.9h103.8c37,0,53.6-26.4,53.6-49.8c0,10.8,4.8-42.6-48.3-42.6h-109
			V413.9z M1186.4,218h83.4c38.1,0,53.3-17.8,53.3-43.8c0-6-1.9-39.6-42.4-39.6h-94.3L1186.4,218z"/>
		<path d="M1659.9,15.4h165.8l188.8,514h-170.2l-24.9-77h-158.9l-21.1,76.6h-168.9L1659.9,15.4z M1736.1,168l-43.8,171.7h93.6
			L1736.1,168z"/>
		<path d="M2279,168.3h158.1C2437.2,81,2371.5,0,2215.7,0c-170.9,0-223.8,94.3-223.8,163.4c0,111.3,136.2,140.9,140.5,142.2
			c20.4,6.4,104.9,29.1,126,36.6c18.3,6.5,35.8,21.2,35.8,40.8c0,30-35.8,44.5-65.6,44.5c-19.1,0-83.4-6.3-83.4-74.5h-163.3
			c0,90.5,62.3,191.8,237,191.8c192.8,0,233.1-115,233.1-176.2c0-49.9-28.3-105.3-93.5-131.6c-39.3-15.9-104.3-29.7-137-39.3
			c-16.5-4.8-71.4-15.9-71.4-49.4c0-42.9,70.7-37.3,60.4-37.3C2242.3,110.9,2279,128.9,2279,168.3z"/>
		<path d="M2478.7,15.3h394.6v135.8h-236.9v90.6h211.3v129.8h-212v158.5h-157.7L2478.7,15.3z"/>
	</g>
</g>
</svg>
